<svg id="Layer_1" data-name="Layer 1" xmlns="http://www.w3.org/2000/svg" viewBox="0 0 457.28 490.23"><title>simpson</title><g id="_Group_" data-name="&lt;Group&gt;"><path d="M199.84,107.6c.09,4.9,2.83,15.4,5,19.93,1.46.51,2-.87,3-.63-2.85-4-4.4-14.39-4.4-22.2C202.73,105.61,199.84,107,199.84,107.6Zm278.24,206c.06,29.05-10.2,53.19-20.32,75-.9,1-3,.69-4.91.7-2.62,29.43-5.05,68.67-28,77.09-8.33,3.06-15.77-.87-20.32-6.31-10.16-12.12-13.33-34.59-17.52-52.56-1.55-1.26-5-.61-7-1.4-6.14-9.84-14.49-34.55.7-39.95-5.76-7.06,6.5-14.35,6.31-24.53-17.16,14.16-33.51,35.18-56.77,45.55-4.35,27.05-10.56,48.75-21,68.69-9.67,18.43-26.59,37.34-51.16,37.84-41.19.85-62.94-29.29-70.78-64.48-2.14-9.59-6-21.28,2.1-25.23-16.91-11.4-37.58-29.7-39.94-56.76-.87-10-.23-20.39,5.6-25.23,7.08-1.34,15.1-.42,21.73.7-1.16-9.12-2.72-17.84-3.5-27.34-3.71.8-7.74,4.5-11.92,4.21-4.7-.32-7.58-6.12-11.21-7-2.73-.66-5.55.59-8.41.7-36.24,1.45-74.48-21.17-84.8-50.46-10.34-5.1-21.11-13.43-18.22-29.43-14.74,7.25-23.28-8.46-14-16.82,5.1-4.61,14.75-3.12,21,0,3.79-5.79,8.71-10.45,18.92-9.82-.08-8.25-5.7-14.18-2.81-23.12C79.16,154.07,84.31,178.76,87,193c10.86,2.38,18.45,10.44,14.72,25.23,7.89,3.79,17.36,6,28.73,6.31.3-18.16,20.55-16.37,37.85-17.52,2.64-25.66-5.71-45.86-21-57.47-11.79,4.69-24-6.54-18.92-18.92-3.6-3.48-14.21-3.44-20.32-2.1,2.22,7.59,11.51,8.12,14.72,14.71-6.77-4-14.19-7.3-16.83-15.41,2.29-3.09,8.86-1.9,14-2.11-21.75-15.16-50.38-23.44-58.17-52.56C53.2,68.48,38.09,48.86,48.48,36c1.2-1.47,3.87-2.64,6.31-3.51C53.08,16.05,66.65,6.2,81.42,12.9c17.12-16.55,55.19-9,69.38,4.91,4.47-3.48,12.94-3.33,14.72,2.8C184,12.19,201.71,25,202,43.74a15.65,15.65,0,0,1,9.11,9.11c6.29-2.62,5-10.45,12.61-10.52,14.15-.12,12.44,25.93,3.51,32.94,3.87,7.07,1.05,15.9-8.41,15.42-1.06,2.92-1.74,6.22-3.51,8.41-2.74.76-5.14,1.87-9.11,1.4-2,9.51-.39,21.37,4.21,26.63,3.94-.2,7.09-.24,9.11,2.11,1.73,3.32-1.75,6.18,0,9.11,7.68-5.08,21.64-2.31,15.41,9.11a110.53,110.53,0,0,0,9.11-7c8.11,4,14.33,10,22.43,14,.49,3.77-2.07,4.48-2.8,7,8.08-6.86,19.63-10.27,32.93-11.91a91.93,91.93,0,0,1,11.92,10.51c15.22-5.72,34.57-16.6,44.15-32.94,3.05-5.19,7.95-13.53,7-18.22-1.47-7.29-12.36-4.91-17.52-9.81-5.18-12.92,13.88-14.54,21-9.11,3.32-.88,4.3-4.11,7-5.61-1.53-5.94-5.24-9.71-4.2-18.22,6.44-12.85,22.08-4.25,23.82,7,15.24-10,23.65,11,9.11,17.52,2.88,11.49,19,8.41,30.14,8.41,9.79,11.46-5.56,21.13-16.82,22.43-12,15.59-16.94,35.54-26.63,52.56s-21.81,30.42-35.74,42.75c9.82,7,19.25,14.39,27.33,23.13C434.61,227.91,478,260.3,478.08,313.56Zm-14,56.07c6.77-20.28,13.08-40.38,11.22-64.48-3.13-40.55-37.08-69.89-82.7-65.88-27.94,2.46-48.87,18.57-63.77,35.74-16,18.43-26.36,41-34.34,65.88-2.28-.49-.49-3.95-3.51-2.1-21.47,15.21-51.88,21.47-86.9,23.13,16.75,22.9,50.15,35.07,87.6,32.93,33.12-1.87,58.25-20.2,77.09-39.24,3.95-4,17.9-15.55,19.63-19.62,2.17-5.15-.66-12.22,2.8-15.42,1.92,8.76-1.13,18.44-2.8,25.93C405.35,362.46,429.65,371.11,464.06,369.63Zm-1.4,2.8c-33.8.87-57.58-8.29-75.69-23.13-1.47,4.6-3.4,8.75-6.3,11.92,14.77,18.79,40,30.35,75.68,25.93C458.22,382,461,377.72,462.66,372.43Zm-51.16-253c9.27-1.84,22.08-6.37,17.52-17.52-9.34-3.31-13.4,2.31-22.42-.7-18-6-15.5-40.46-30.84-39.94-4.2.14-7.2,4.34-7.71,7-1.93,10.21,7.8,12.92,4.91,23.13-1.09-1-1.48-2.73-1.4-4.91-6.79,3.59-11.14,13-9.11,23.13-7.61,27-27.15,42-51.86,51.86,8.28,12.74,14,28.05,14.71,48.36,8.88.7,15.66,3.5,22.43,6.31,14-12.7,26.72-25.93,36.44-43.45C393.77,155.41,398.62,134.63,411.5,119.43ZM396.79,88.6c14.92-4,5-23.92-6.31-12.62C393.23,79.54,394.51,84.57,396.79,88.6Zm-37.15,16.11c.21-5.4,2.41-8.8,3.51-13.31-6.26-2-21-5.48-19.63,5.6C347.08,101.39,356.2,100.22,359.64,104.71Zm15.42,136.67c-11.93-13.86-28.21-28.44-51.86-30.14-5.45-.39-14.46,1.27-18.92-.7,2.27-.06,4.31-.36,5.61-1.4-15.69-18.9-36.75-32.4-60.28-43.45,2.59-1.53,4.91,2.31,8.41,2.1,1.69-4.39,4.7-7.45,6.31-11.91a124.08,124.08,0,0,0-19.62-13.32c-.13,10.68,4.79,19.93,2.8,30.14-9.14-2.31-15.51-7.39-25.23-9.11-2.25,10.56,4.42,17.92,7,25.93-8.84,11.95-23,18.56-36.44,25.93,8.67,7,16.33,15.84,17.52,28.73,2.33,25.13-20,39.46-35,49.06,1,26.76,7.23,48.36,16.82,66.58,42.92.64,76.35-8.22,102.32-24.53C309.11,291.77,331.62,256.1,375.06,241.38ZM323.2,209.84c.58-20.71-8.91-44.08-21.73-54.67-10.87-9-36.32,3.28-41.35,14.72,22.37,8.71,37.61,24.54,53.27,40ZM291,477.55c20.48-19.43,32.24-55.27,35.74-89-22.59,13.05-68.16,9.58-91.8,0,2.13,11.61-.83,23.29-4.21,32.23-2.4,6.35-4.53,14-9.11,15.42,2.9-8.79,9.73-17.36,9.11-27.33-18.51,2.51-33.06,9-41.35,21.73,7.35,32.8,28.69,58.52,63.78,61C270.11,492.75,282.36,485.73,291,477.55Zm-44.85-314c-2.06-6.11-.53-15.82-4.91-19.62-1.89,3.95-7,4.69-8.41,9.11C236.53,157.29,240.35,161.4,246.11,163.58Zm.7,7c-1.76-7.58-9.41-9.28-14-14,.61,4.11-2.62,4.38-2.8,7.71C236.28,165.7,240.55,169.15,246.81,170.59Zm-20.32-18.92c3.23-3.31,8.85-4.23,7.7-11.91-2.76-4-9.7-1.29-12.61.7-4-2.25-5.87-1.59-8.41,2.1,3.57.64,9.85-1.44,11.21,1.4-5.19,13.48-16.52,22.86-30.83,21-13.47-1.72-26.63-18.66-26.63-32.93,0-26.83,38.47-34.83,54-51.16,4-4.22,9-10.89,10.51-16.12,2.4-8.27-.34-20.84-8.41-20.33-6.63.43-7.22,10.78-11.91,11.92-9.94,26.14-56.38,38.35-46.26,82.7a45.21,45.21,0,0,0,7,14.71c5.75,7.47,19.86,18.55,32.24,16.82,8.46-1.18,11.24-12.18,23.83-8.41,1.26-2,3.43-3.1,2.8-7C231.46,151.84,226.52,154.21,226.49,151.67Zm5.6,255.1c1.45-5.09.37-12.71.7-18.92-20.53,2.13-34.66,10.65-46.25,21.72a52.18,52.18,0,0,0,2.1,16.12C198.47,417.53,212,407,232.09,406.77Zm-7-318.87c2-2.6,4.42-8,0-9.82-13.81,19.84-43.85,23.43-54.66,46.26,8.26,2,7.37-5.24,9.81-9.11,3.11,1,4.12,0,7.71,0,2.86-1.81,2.49-6.86,4.91-9.11,3.14.34,5.24-.35,7.71-.7,2.32-1.42,2.12-5.36,4.2-7,3.74.78,6.93.92,9.81-.7,1.33-2.41,2-5.5,2.81-8.41C220.92,89.8,222.49,88.35,225.08,87.9Zm2.81,100.91c-4.51-6.7-7.39-15-8.41-25.23-16.57,11-35,20.16-49.76,32.94V207c7.74,1.85,15.87,3.29,21.73,7C205.29,207.33,218.83,200.31,227.89,188.81ZM167.62,295.34c18.21-9.55,44-25.31,41.35-51.16-2.9-27.79-35-43-66.58-31.54C164.88,224.87,175.51,265.3,167.62,295.34ZM196.35,73.18c6-5.86,20.54-23.53,7-27.33-13.89-3.89-20.23,17-28,20.32A25.61,25.61,0,0,1,153.6,97c-35.21,3.37-37.31-52.92-2.1-51.87-.65-12.79,6.18-18.11,11.91-24.52-1.88-4.73-10.24-2.71-12.61,0C140.51,13.27,130.06,6.43,115.06,5.2,85.55,2.78,71.76,24.39,64.6,46.55c1,3,5.37,2.57,6.31,5.6-3.42,1-6.07-5.22-7-2.1C62,54.9,62,64.65,63.2,70.37c1.12,2.39,5.87,1.14,6.3,4.21-2.52.19-3.37-1.29-5.6-1.4,8.42,28.72,37.25,37,59.57,51.86-2.08-5.86-7.33-8.55-7-16.82,8.07-3.09,19.11,2.16,24.53,6.3-8.19-1-15.22-6.58-23.13-5.6,1.82,8.69,7,14,11.92,19.62,2-3.19,8.93-8,12.61-4.9-18.26.68-16.19,27.55,1.4,25.23,7.36-1,7.54-9.92,12.62-11.92a32.91,32.91,0,0,1-7,11.92c11.68,10,20.14,23.31,21.73,43.45,10.07-6.28,19.72-13,29.43-19.63-25.25-6.24-40.91-22.64-38.54-49.75C164.15,98.38,184,85.26,196.35,73.18Zm4.21-29.44c1.74-32-50.79-31.49-47.66,1.4,12,1.57,18.19,8.91,22.43,18.23C184.05,57.14,187.44,45.57,200.56,43.74ZM169,286.23c.15-27-5.23-48.5-16.82-63.78-14.39,7.12-37.28,3.78-51.16-1.4-1.74.84-.85,4.3-4.21,3.51,2.76-8.15,6.61-17.07,1.41-23.83-7.61-9.87-30.62-4.37-28,8.41,2.13,10.5,18.79,3.38,21.73,0-3.6,9.94-22.86,10.61-23.83-.7-.73-8.45,7.48-13.81,16.82-14.72-3.15-12.88-4.69-34.36-21-29.43-3.67,9.89,6.43,19.08,2.1,27.33-1.86.22.66-3.93-2.1-2.8-22.57-5.39-20.18,32.87-6.31,32.93,11.41.06,6.34-16.23,5.6-23.12,6.82,8.55,4.94,25.26-5.6,25.23-10.35,0-12.23-14.09-12.62-25.93-9.72-4.12-25-3.05-21.72,11.91,5,7,16.14-1.67,21,1.4-.13,3.31-3.78-1.25-3.51,2.1C37,233.25,53.91,238.48,66,244.88c-3.09,1.47-6.2-3-6.3,0C74.68,278.88,121.64,300.11,169,286.23Zm-15.42,5.6c2.64,8.1,14.68,6.23,14.72-2.8C163.38,289.93,158.49,290.88,153.6,291.83ZM148,95.6c35.4,3.44,33.87-54.42-1.4-48.35C119.3,51.94,122.13,93.1,148,95.6Zm2.11,125.45c-2.53-8.15-19.78-12-16.83,3.5C140.13,224.64,145.11,222.85,150.1,221.05ZM68.8,31.83c1.89-7.5,9.78-12.59,11.21-18.22C65.93,8.9,55.94,17.2,56.89,31.83,60.69,30.52,64.74,31.49,68.8,31.83ZM63.19,44.44c.89-4.25,3-7.23,4.21-11.21a45.06,45.06,0,0,0-10.51,0C57.6,38.36,59,42.85,63.19,44.44Zm-7.7-9.81c-15.58,4.75-4.88,34,5.6,33.64-1.74-6.42-.48-15.88,1.4-21C59.1,44.11,56.12,40.54,55.49,34.63Z" transform="translate(-20.8 -3.46)" style="fill:#010101"/><path d="M204.89,127.53c-2.22-4.53-5-15-5.06-19.93,0-.61,2.9-2,3.66-2.9,0,7.81,1.54,18.16,4.4,22.2C206.86,126.66,206.35,128,204.89,127.53Z" transform="translate(-20.8 -3.46)" style="fill:#d6a563"/><path d="M475.28,305.15c1.86,24.1-4.44,44.19-11.22,64.48-34.41,1.48-58.71-7.17-75.68-23.13,1.66-7.49,4.72-17.17,2.8-25.93-3.45,3.2-.62,10.27-2.8,15.42-1.73,4.07-15.68,15.62-19.63,19.62-18.83,19-44,37.37-77.09,39.24-37.45,2.14-70.85-10-87.6-32.93,35-1.67,65.43-7.92,86.9-23.13,3-1.85,1.23,1.61,3.51,2.1,8-24.92,18.35-47.45,34.34-65.88,14.9-17.17,35.84-33.28,63.77-35.74C438.2,235.26,472.15,264.6,475.28,305.15Z" transform="translate(-20.8 -3.46)" style="fill:#669bc7"/><path d="M387,349.3c18.11,14.84,41.89,24,75.69,23.13-1.71,5.29-4.44,9.57-6.31,14.72-35.7,4.42-60.91-7.15-75.68-25.93C383.57,358.05,385.5,353.9,387,349.3Z" transform="translate(-20.8 -3.46)" style="fill:#669bc7"/><path d="M429,101.91c4.56,11.15-8.25,15.68-17.52,17.52-12.88,15.2-17.73,36-27.33,53.27-9.73,17.52-22.48,30.75-36.44,43.45-6.77-2.81-13.55-5.61-22.43-6.31-.72-20.3-6.43-35.61-14.72-48.36,24.71-9.86,44.26-24.89,51.86-51.86-2-10.1,2.32-19.54,9.11-23.13-.07,2.18.32,3.9,1.4,4.91,2.89-10.21-6.83-12.92-4.9-23.13.51-2.66,3.51-6.86,7.71-7,15.33-.52,12.86,33.94,30.84,39.94C415.62,104.22,419.68,98.6,429,101.91Z" transform="translate(-20.8 -3.46)" style="fill:#ffd035"/><path d="M390.48,76c11.33-11.3,21.24,8.6,6.31,12.62C394.51,84.57,393.23,79.54,390.48,76Z" transform="translate(-20.8 -3.46)" style="fill:#ffd035"/><path d="M363.15,91.4c-1.1,4.51-3.3,7.91-3.51,13.31-3.44-4.49-12.56-3.32-16.12-7.7C342.19,85.92,356.89,89.37,363.15,91.4Z" transform="translate(-20.8 -3.46)" style="fill:#ffd035"/><path d="M323.2,211.24c23.65,1.7,39.93,16.28,51.86,30.14-43.44,14.72-65.95,50.39-80.6,93.91-26,16.31-59.39,25.17-102.32,24.52-9.58-18.21-15.78-39.81-16.82-66.57,15-9.6,37.37-23.94,35.05-49.06-1.2-12.9-8.86-21.78-17.53-28.73,13.43-7.37,27.61-14,36.45-25.94-2.6-8-9.26-15.36-7-25.93,9.72,1.73,16.09,6.81,25.23,9.11,2-10.21-2.93-19.45-2.81-30.13a123.79,123.79,0,0,1,19.62,13.31c-1.61,4.47-4.62,7.52-6.3,11.92-3.51.21-5.83-3.63-8.41-2.11,23.52,11.06,44.58,24.56,60.27,43.46-1.3,1-3.33,1.34-5.61,1.4C308.74,212.51,317.75,210.85,323.2,211.24Z" transform="translate(-20.8 -3.46)" style="fill:#fff"/><path d="M301.47,155.18c12.82,10.58,22.31,33.95,21.73,54.66h-9.81c-15.66-15.41-30.89-31.24-53.26-40C265.15,158.45,290.61,146.19,301.47,155.18Z" transform="translate(-20.8 -3.46)" style="fill:#fff"/><path d="M326.7,388.55c-3.5,33.74-15.26,69.57-35.74,89-8.6,8.18-20.85,15.21-37.84,14-35.09-2.45-56.43-28.18-63.78-61,8.3-12.73,22.84-19.22,41.35-21.73.62,10-6.22,18.55-9.11,27.34,4.58-1.45,6.72-9.08,9.11-15.42,3.38-9,6.34-20.63,4.21-32.24C258.54,398.13,304.11,401.6,326.7,388.55Z" transform="translate(-20.8 -3.46)" style="fill:#669bc7"/><path d="M241.2,144c4.38,3.8,2.85,13.51,4.91,19.62-5.76-2.18-9.58-6.29-13.32-10.51C234.21,148.65,239.31,147.91,241.2,144Z" transform="translate(-20.8 -3.46)" style="fill:#fff"/><path d="M232.79,156.57c4.61,4.74,12.26,6.44,14,14-6.26-1.44-10.53-4.89-16.82-6.31C230.17,161,233.4,160.69,232.79,156.57Z" transform="translate(-20.8 -3.46)" style="fill:#fff"/><path d="M234.2,139.76c1.14,7.68-4.48,8.6-7.71,11.91,0,2.54,5,.17,4.2,3.51.63,3.9-1.53,5-2.8,7-12.59-3.77-15.36,7.24-23.83,8.41-12.38,1.73-26.48-9.34-32.24-16.82a45.41,45.41,0,0,1-7-14.71c-10.12-44.35,36.32-56.56,46.26-82.7,4.69-1.14,5.28-11.49,11.91-11.91,8.07-.52,10.81,12,8.41,20.32-1.51,5.23-6.5,11.9-10.51,16.12-15.49,16.33-54,24.33-54,51.16,0,14.27,13.16,31.21,26.63,32.94,14.31,1.83,25.64-7.54,30.83-21-1.35-2.84-7.64-.76-11.21-1.4,2.54-3.69,4.45-4.35,8.41-2.1C224.5,138.47,231.43,135.76,234.2,139.76Z" transform="translate(-20.8 -3.46)" style="fill:#d6a563"/><path d="M232.79,387.85c-.33,6.21.75,13.83-.7,18.92-20.11.22-33.62,10.77-43.45,18.92a52.14,52.14,0,0,1-2.1-16.12C198.13,398.5,212.26,390,232.79,387.85Z" transform="translate(-20.8 -3.46)" style="fill:#669bc7"/><path d="M225.08,78.08c4.42,1.8,2,7.21,0,9.82-2.59.44-4.17,1.9-7.7,1.4-.82,2.91-1.48,6-2.81,8.41-2.88,1.62-6.07,1.48-9.81.7-2.08,1.65-1.88,5.59-4.2,7-2.46.35-4.57,1-7.71.7-2.42,2.25-2,7.3-4.91,9.11-3.59,0-4.6,1-7.71,0-2.44,3.87-1.55,11.06-9.81,9.11C181.23,101.51,211.27,97.92,225.08,78.08Z" transform="translate(-20.8 -3.46)" style="fill:#fff"/><path d="M219.48,163.58c1,10.2,3.9,18.53,8.41,25.23-9.06,11.5-22.6,18.52-36.44,25.23-5.86-3.72-14-5.16-21.73-7V196.52C184.51,183.74,202.91,174.59,219.48,163.58Z" transform="translate(-20.8 -3.46)" style="fill:#fff"/><path d="M209,244.18c2.69,25.84-23.15,41.61-41.35,51.16,7.89-30-2.74-70.47-25.23-82.7C174,201.22,206.07,216.38,209,244.18Z" transform="translate(-20.8 -3.46)" style="fill:#fff"/><path d="M203.36,45.85c13.52,3.8-1,21.47-7,27.33C184,85.26,164.15,98.38,162,122.94c-2.36,27.11,13.29,43.51,38.55,49.75-9.72,6.64-19.37,13.35-29.44,19.63-1.59-20.14-10.05-33.4-21.73-43.45a32.76,32.76,0,0,0,7-11.92c-5.07,2-5.25,10.94-12.61,11.92-17.59,2.32-19.67-24.55-1.4-25.23-3.68-3.09-10.64,1.71-12.62,4.9-4.88-5.63-10.1-10.93-11.91-19.62,7.91-1,14.93,4.56,23.12,5.6-5.42-4.14-16.46-9.39-24.53-6.3-.32,8.27,4.93,11,7,16.82-22.31-14.83-51.14-23.14-59.57-51.86,2.23.11,3.09,1.59,5.61,1.4-.44-3.07-5.19-1.82-6.31-4.21C62,64.65,62,54.9,63.89,50.05c.94-3.12,3.6,3.13,7,2.1-.93-3-5.28-2.65-6.31-5.6,7.17-22.16,21-43.77,50.46-41.35,15,1.23,25.46,8.07,35.74,15.42,2.37-2.71,10.73-4.73,12.62,0-5.73,6.41-12.57,11.73-11.92,24.52-35.2-1-33.1,55.24,2.11,51.87a25.61,25.61,0,0,0,21.72-30.84C183.13,62.87,189.47,42,203.36,45.85ZM141,132.75c1.87-1.79,3.69.43,6.3,0-3.52-6-12.72-.5-12.61,5.6,3.83.8,1.76-4.3,4.9-4.2-.69,3.92,5,8.29,7,4.9C143.64,138,140.82,136.89,141,132.75Z" transform="translate(-20.8 -3.46)" style="fill:#ffd035"/><path d="M152.9,45.15c-3.13-32.9,49.4-33.42,47.66-1.41-13.12,1.83-16.51,13.4-25.23,19.63C171.09,54.05,164.88,46.72,152.9,45.15ZM189.34,36c2.86.3,4.42-.71,4.21-3.5-.75-3.39-6.93-2.5-5.61,2.1A2.11,2.11,0,0,0,189.34,36Z" transform="translate(-20.8 -3.46)" style="fill:#fff"/><path d="M193.55,32.53c.21,2.79-1.35,3.8-4.21,3.5a2.11,2.11,0,0,1-1.4-1.4C186.62,30,192.8,29.14,193.55,32.53Z" transform="translate(-20.8 -3.46)" style="fill:#010101"/><path d="M152.2,222.45c11.58,15.28,17,36.76,16.82,63.78-47.38,13.88-94.35-7.36-109.33-41.35.1-3,3.21,1.47,6.31,0-12.09-6.41-29-11.64-25.23-31.54-.28-3.36,3.38,1.21,3.5-2.1-4.88-3.08-16.05,5.58-21-1.4-3.26-15,12-16,21.72-11.92.39,11.85,2.27,25.9,12.62,25.93,10.55,0,12.43-16.67,5.61-25.23.73,6.89,5.8,23.19-5.61,23.13-13.87-.06-16.26-38.33,6.31-32.94,2.76-1.12.24,3,2.1,2.8,4.33-8.24-5.77-17.43-2.1-27.33,16.33-4.92,17.88,16.56,21,29.44-9.33.9-17.55,6.27-16.82,14.72,1,11.31,20.23,10.63,23.83.7-2.94,3.37-19.6,10.49-21.73,0-2.58-12.78,20.43-18.28,28-8.41,5.2,6.76,1.35,15.67-1.41,23.82,3.36.79,2.47-2.67,4.21-3.5C114.92,226.22,137.8,229.57,152.2,222.45Z" transform="translate(-20.8 -3.46)" style="fill:#ffd035"/><path d="M168.32,289c0,9-12.08,10.9-14.72,2.81C158.49,290.88,163.38,289.93,168.32,289Z" transform="translate(-20.8 -3.46)" style="fill:#fff"/><path d="M146.59,47.25c35.27-6.07,36.8,51.79,1.4,48.36C122.13,93.1,119.3,51.94,146.59,47.25Zm-.7,33.64c2.86.29,4.43-.72,4.21-3.51-.75-3.39-6.93-2.49-5.61,2.11A2.36,2.36,0,0,0,145.89,80.89Z" transform="translate(-20.8 -3.46)" style="fill:#fff"/><path d="M150.1,77.38c.21,2.79-1.35,3.8-4.21,3.51a2.36,2.36,0,0,1-1.4-1.4C143.17,74.89,149.35,74,150.1,77.38Z" transform="translate(-20.8 -3.46)" style="fill:#010101"/><path d="M147.29,132.75c-2.61.43-4.43-1.79-6.3,0-.17,4.14,2.65,5.29,5.6,6.31-2,3.38-7.69-1-7-4.91-3.14-.1-1.07,5-4.9,4.21C134.57,132.25,143.77,126.77,147.29,132.75Z" transform="translate(-20.8 -3.46)" style="fill:#ffd035"/><path d="M133.28,224.55c-2.95-15.47,14.29-11.65,16.82-3.5C145.11,222.85,140.13,224.64,133.28,224.55Z" transform="translate(-20.8 -3.46)" style="fill:#fff"/><path d="M80,13.61c-1.43,5.63-9.32,10.71-11.21,18.22-4-.34-8.11-1.31-11.91,0C55.94,17.2,65.93,8.9,80,13.61Z" transform="translate(-20.8 -3.46)" style="fill:#fff"/><path d="M67.4,33.23c-1.17,4-3.32,7-4.21,11.21-4.24-1.59-5.59-6.08-6.3-11.21A45.06,45.06,0,0,1,67.4,33.23Z" transform="translate(-20.8 -3.46)" style="fill:#fff"/><path d="M61.09,68.27c-10.48.32-21.18-28.89-5.6-33.64.63,5.91,3.61,9.48,7,12.62C60.61,52.38,59.35,61.85,61.09,68.27Z" transform="translate(-20.8 -3.46)" style="fill:#fff"/><path d="M203.49,104.7c0,7.81,1.54,18.16,4.4,22.2-1-.24-1.54,1.14-3,.63-2.22-4.53-5-15-5.06-19.93C199.84,107,202.73,105.61,203.49,104.7Z" transform="translate(-20.8 -3.46)" style="fill:none;stroke:#d6a563;stroke-linejoin:round"/></g><path d="M274.77,96.8" transform="translate(-20.8 -3.46)" style="fill:none;stroke:#010101;stroke-linecap:round;stroke-linejoin:round;stroke-width:0.5px"/><path d="M280.38,91.2" transform="translate(-20.8 -3.46)" style="fill:none;stroke:#010101;stroke-linecap:round;stroke-linejoin:round;stroke-width:0.5px"/><path d="M280.38,91.2" transform="translate(-20.8 -3.46)" style="fill:none;stroke:#010101;stroke-linecap:round;stroke-linejoin:round;stroke-width:0.5px"/><path d="M209.65,128.19c-.84.12-17.18,2.8-19.16,11C188.92,145.74,196,159,196,163.6c4.86.9,9.49-2,14-3.39s-3.46-11.63-2.86-15.13,3-1.71,4.49-3.21S220.1,136,218,130.19C217.33,128.34,214.73,127.51,209.65,128.19Z" transform="translate(-20.8 -3.46)" style="fill:#ef3d25"/><path d="M213.15,141.38s-9.43,3.78-10.52,7" transform="translate(-20.8 -3.46)" style="fill:none;stroke:#010101;stroke-linecap:round;stroke-miterlimit:10;stroke-width:1.5px"/><path d="M197.85,131.56c3.87.45,8.59-.1,10.68,1.9" transform="translate(-20.8 -3.46)" style="fill:none;stroke:#010101;stroke-linecap:round;stroke-miterlimit:10;stroke-width:1.5px"/></svg>